<svg xmlns="http://www.w3.org/2000/svg"  xmlns:xlink="http://www.w3.org/1999/xlink" width="500" zoomAndPan="magnify" viewBox="0 0 375 374.999991" height="500" preserveAspectRatio="xMidYMid meet" version="1.0"><defs><filter x="0%" y="0%" width="100%" height="100%" id="43498f1888"><feColorMatrix values="0 0 0 0 1 0 0 0 0 1 0 0 0 0 1 0 0 0 1 0" color-interpolation-filters="sRGB"/></filter><mask id="8a15a91224"><g filter="url(#43498f1888)"><rect x="-37.5" width="450" fill="#000000" y="-37.499999" height="449.999989" fill-opacity="0.0588"/></g></mask><clipPath id="9eb9bd193d"><path d="M 0 0 L 375 0 L 375 375 L 0 375 Z M 0 0 " clip-rule="nonzero"/></clipPath><clipPath id="95e02611bf"><rect x="0" width="375" y="0" height="375"/></clipPath></defs><g mask="url(#8a15a91224)"><g transform="matrix(1, 0, 0, 1, 0, 0)"><g clip-path="url(#95e02611bf)"><path fill="#1f1f1f" d="M 187.5 288.402344 C 160.546875 288.402344 135.207031 277.90625 116.148438 258.847656 C 97.089844 239.789062 86.59375 214.449219 86.59375 187.5 C 86.59375 160.546875 97.089844 135.207031 116.148438 116.148438 C 135.207031 97.089844 160.546875 86.59375 187.5 86.59375 C 214.449219 86.59375 239.789062 97.089844 258.847656 116.148438 C 277.90625 135.207031 288.402344 160.546875 288.402344 187.5 C 288.402344 214.449219 277.90625 239.789062 258.847656 258.847656 C 239.789062 277.90625 214.449219 288.402344 187.5 288.402344 Z M 187.5 87.550781 C 132.386719 87.550781 87.550781 132.386719 87.550781 187.5 C 87.550781 242.609375 132.386719 287.445312 187.5 287.445312 C 242.609375 287.445312 287.445312 242.609375 287.445312 187.496094 C 287.445312 132.386719 242.609375 87.550781 187.5 87.550781 Z M 187.5 87.550781 " fill-opacity="1" fill-rule="nonzero"/><path fill="#1f1f1f" d="M 187.5 270.878906 C 165.226562 270.878906 144.289062 262.207031 128.539062 246.457031 C 112.789062 230.707031 104.117188 209.769531 104.117188 187.5 C 104.117188 165.226562 112.789062 144.289062 128.539062 128.539062 C 144.289062 112.789062 165.226562 104.117188 187.5 104.117188 C 209.769531 104.117188 230.707031 112.789062 246.457031 128.539062 C 262.207031 144.289062 270.878906 165.226562 270.878906 187.5 C 270.878906 209.769531 262.207031 230.710938 246.457031 246.457031 C 230.707031 262.207031 209.769531 270.878906 187.5 270.878906 Z M 187.5 104.90625 C 141.957031 104.90625 104.90625 141.957031 104.90625 187.5 C 104.90625 233.039062 141.957031 270.089844 187.5 270.089844 C 233.039062 270.089844 270.089844 233.039062 270.089844 187.5 C 270.089844 141.957031 233.039062 104.90625 187.5 104.90625 Z M 187.5 104.90625 " fill-opacity="1" fill-rule="nonzero"/><path fill="#1f1f1f" d="M 187.5 252.148438 C 151.851562 252.148438 122.847656 223.148438 122.847656 187.496094 C 122.847656 151.847656 151.851562 122.847656 187.5 122.847656 C 223.148438 122.847656 252.148438 151.847656 252.148438 187.496094 C 252.148438 223.148438 223.144531 252.148438 187.5 252.148438 Z M 187.5 123.460938 C 152.1875 123.460938 123.460938 152.1875 123.460938 187.5 C 123.460938 222.808594 152.1875 251.535156 187.5 251.535156 C 222.808594 251.535156 251.535156 222.808594 251.535156 187.5 C 251.535156 152.1875 222.808594 123.460938 187.5 123.460938 Z M 187.5 123.460938 " fill-opacity="1" fill-rule="nonzero"/><path fill="#1f1f1f" d="M 187.5 343.191406 C 145.910156 343.191406 106.8125 326.996094 77.40625 297.589844 C 48 268.183594 31.804688 229.085938 31.804688 187.5 C 31.804688 145.910156 48 106.8125 77.40625 77.40625 C 106.8125 48 145.910156 31.804688 187.5 31.804688 C 229.085938 31.804688 268.183594 48 297.589844 77.40625 C 326.996094 106.8125 343.191406 145.910156 343.191406 187.5 C 343.191406 229.085938 326.996094 268.183594 297.589844 297.589844 C 268.183594 326.996094 229.085938 343.191406 187.5 343.191406 Z M 187.5 33.28125 C 102.464844 33.28125 33.28125 102.460938 33.28125 187.496094 C 33.28125 272.535156 102.460938 341.714844 187.5 341.714844 C 272.535156 341.714844 341.714844 272.535156 341.714844 187.496094 C 341.714844 102.460938 272.535156 33.28125 187.5 33.28125 Z M 187.5 33.28125 " fill-opacity="1" fill-rule="nonzero"/><path fill="#1f1f1f" d="M 187.5 325.917969 C 150.523438 325.917969 115.765625 311.519531 89.621094 285.375 C 63.476562 259.230469 49.078125 224.472656 49.078125 187.496094 C 49.078125 150.523438 63.476562 115.765625 89.621094 89.621094 C 115.765625 63.476562 150.523438 49.078125 187.5 49.078125 C 224.472656 49.078125 259.230469 63.476562 285.375 89.621094 C 311.519531 115.765625 325.917969 150.523438 325.917969 187.496094 C 325.917969 224.472656 311.519531 259.230469 285.375 285.375 C 259.230469 311.519531 224.472656 325.917969 187.5 325.917969 Z M 187.5 50.390625 C 111.898438 50.390625 50.390625 111.898438 50.390625 187.496094 C 50.390625 263.101562 111.898438 324.605469 187.5 324.605469 C 263.097656 324.605469 324.605469 263.101562 324.605469 187.496094 C 324.605469 111.894531 263.097656 50.390625 187.5 50.390625 Z M 187.5 50.390625 " fill-opacity="1" fill-rule="nonzero"/><path fill="#1f1f1f" d="M 187.5 307.675781 C 121.234375 307.675781 67.324219 253.761719 67.324219 187.496094 C 67.324219 121.234375 121.234375 67.320312 187.5 67.320312 C 253.761719 67.320312 307.671875 121.234375 307.671875 187.496094 C 307.671875 253.761719 253.761719 307.675781 187.5 307.675781 Z M 187.5 68.460938 C 121.863281 68.460938 68.460938 121.859375 68.460938 187.496094 C 68.460938 253.132812 121.863281 306.535156 187.5 306.535156 C 253.132812 306.535156 306.535156 253.132812 306.535156 187.496094 C 306.535156 121.859375 253.132812 68.460938 187.5 68.460938 Z M 187.5 68.460938 " fill-opacity="1" fill-rule="nonzero"/><g clip-path="url(#9eb9bd193d)"><path fill="#1f1f1f" d="M 187.5 375 C 137.414062 375 90.328125 355.496094 54.914062 320.082031 C 19.5 284.667969 -0.00390625 237.582031 -0.00390625 187.496094 C -0.00390625 137.414062 19.5 90.328125 54.914062 54.914062 C 90.328125 19.5 137.414062 -0.00390625 187.5 -0.00390625 C 237.582031 -0.00390625 284.667969 19.5 320.082031 54.914062 C 355.496094 90.328125 375 137.414062 375 187.496094 C 375 237.582031 355.496094 284.667969 320.082031 320.082031 C 284.667969 355.496094 237.582031 375 187.5 375 Z M 187.5 1.773438 C 85.089844 1.773438 1.773438 85.089844 1.773438 187.496094 C 1.773438 289.90625 85.089844 373.226562 187.5 373.226562 C 289.90625 373.226562 373.222656 289.90625 373.222656 187.496094 C 373.222656 85.089844 289.90625 1.773438 187.5 1.773438 Z M 187.5 1.773438 " fill-opacity="1" fill-rule="nonzero"/></g><path fill="#1f1f1f" d="M 187.5 358.589844 C 93.160156 358.589844 16.410156 281.835938 16.410156 187.496094 C 16.410156 93.160156 93.160156 16.40625 187.5 16.40625 C 281.835938 16.40625 358.589844 93.160156 358.589844 187.496094 C 358.585938 281.835938 281.835938 358.589844 187.5 358.589844 Z M 187.5 18.03125 C 94.054688 18.03125 18.03125 94.054688 18.03125 187.496094 C 18.03125 280.941406 94.054688 356.96875 187.5 356.96875 C 280.941406 356.96875 356.964844 280.941406 356.964844 187.496094 C 356.964844 94.054688 280.941406 18.03125 187.5 18.03125 Z M 187.5 18.03125 " fill-opacity="1" fill-rule="nonzero"/></g></g></g></svg>