<svg xmlns="http://www.w3.org/2000/svg" xmlns:xlink="http://www.w3.org/1999/xlink" width="500" zoomAndPan="magnify" viewBox="0 0 375 374.999991" height="500" preserveAspectRatio="xMidYMid meet" version="1.0"><defs><g/><clipPath id="49ad77a8f7"><path d="M 107.382812 110.835938 L 260.382812 110.835938 L 260.382812 263.835938 L 107.382812 263.835938 Z M 107.382812 110.835938 " clip-rule="nonzero"/></clipPath><clipPath id="ea81ff21d4"><path d="M 94.164062 269.773438 L 120.414062 269.773438 L 120.414062 296.023438 L 94.164062 296.023438 Z M 94.164062 269.773438 " clip-rule="nonzero"/></clipPath><clipPath id="36557df277"><path d="M 101 74 L 121 74 L 121 94 L 101 94 Z M 101 74 " clip-rule="nonzero"/></clipPath><clipPath id="00273b0251"><path d="M 94.09375 81.71875 L 113.140625 67.121094 L 127.738281 86.171875 L 108.691406 100.769531 Z M 94.09375 81.71875 " clip-rule="nonzero"/></clipPath><clipPath id="af46f85049"><path d="M 94.09375 81.71875 L 113.140625 67.121094 L 127.738281 86.171875 L 108.691406 100.769531 Z M 94.09375 81.71875 " clip-rule="nonzero"/></clipPath><clipPath id="8ff42d94f0"><path d="M 277 94 L 300 94 L 300 117 L 277 117 Z M 277 94 " clip-rule="nonzero"/></clipPath><clipPath id="5aed70ee28"><path d="M 293.683594 88.324219 L 305.539062 110.902344 L 282.957031 122.753906 L 271.105469 100.175781 Z M 293.683594 88.324219 " clip-rule="nonzero"/></clipPath><clipPath id="3e66c990d7"><path d="M 293.683594 88.324219 L 305.539062 110.902344 L 282.957031 122.753906 L 271.105469 100.175781 Z M 293.683594 88.324219 " clip-rule="nonzero"/></clipPath><clipPath id="25f8aa995b"><path d="M 284 235 L 313 235 L 313 264 L 284 264 Z M 284 235 " clip-rule="nonzero"/></clipPath><clipPath id="d1e725c815"><path d="M 283.808594 236.714844 L 311.519531 235.261719 L 312.972656 262.972656 L 285.261719 264.425781 Z M 283.808594 236.714844 " clip-rule="nonzero"/></clipPath><clipPath id="035542ac92"><path d="M 283.808594 236.714844 L 311.519531 235.261719 L 312.972656 262.972656 L 285.261719 264.425781 Z M 283.808594 236.714844 " clip-rule="nonzero"/></clipPath></defs><g fill="#000000" fill-opacity="1"><g transform="translate(143.848408, 73.642198)"><g><path d="M 19.1875 -4.902344 L 24.902344 -6.363281 L 8.441406 -30.378906 L 3.296875 -29.0625 L 0.378906 -0.0976562 L 6.09375 -1.558594 L 6.609375 -8.058594 L 15.578125 -10.351562 Z M 7.082031 -13.300781 L 7.804688 -22.152344 L 12.683594 -14.730469 Z M 7.082031 -13.300781 "/></g></g></g><g fill="#000000" fill-opacity="1"><g transform="translate(174.776034, 66.965601)"><g><path d="M 9.167969 -11.75 C 6.179688 -12.574219 5.621094 -13.03125 5.566406 -13.734375 C 5.511719 -14.238281 5.996094 -15.226562 7.992188 -15.121094 C 9.441406 -15.039062 10.085938 -14.15625 10.296875 -13.535156 L 14.253906 -14.765625 C 13.9375 -16.476562 11.71875 -19.351562 7.1875 -19.242188 C 2.308594 -19.125 0.265625 -16.339844 0.210938 -13.71875 C 0.171875 -10.632812 2 -9.269531 6.136719 -7.925781 C 8.773438 -7.089844 9.675781 -6.996094 9.738281 -5.941406 C 9.804688 -4.929688 8.25 -4.539062 6.84375 -4.582031 C 5.511719 -4.628906 3.855469 -5.367188 3.441406 -6.335938 L -0.296875 -4.210938 C 0.382812 -1.925781 3.910156 0.179688 7.855469 0.0820312 C 12.191406 -0.0234375 15.179688 -2.402344 15.214844 -5.800781 C 15.261719 -8.65625 13.613281 -10.492188 9.167969 -11.75 Z M 9.167969 -11.75 "/></g></g></g><g fill="#000000" fill-opacity="1"><g transform="translate(196.43857, 66.257579)"><g><path d="M 24.78125 -14.101562 C 22.683594 -14.566406 20.621094 -14.097656 18.957031 -12.90625 C 18.234375 -14.703125 16.769531 -15.867188 14.597656 -16.34375 C 12.878906 -16.722656 11.269531 -16.316406 9.914062 -15.417969 L 10.265625 -17.019531 L 5.191406 -18.136719 L 1.144531 0.25 L 6.21875 1.367188 L 8.417969 -8.625 C 8.980469 -11.183594 10.3125 -12.328125 12.105469 -11.933594 C 13.9375 -11.53125 14.558594 -9.992188 14.03125 -7.589844 L 11.789062 2.59375 L 16.859375 3.710938 L 19.0625 -6.285156 C 19.625 -8.839844 20.917969 -9.992188 22.75 -9.589844 C 24.578125 -9.1875 25.203125 -7.652344 24.671875 -5.25 L 22.429688 4.9375 L 27.503906 6.054688 L 29.703125 -3.941406 C 30.945312 -9.585938 29.015625 -13.171875 24.78125 -14.101562 Z M 24.78125 -14.101562 "/></g></g></g><g fill="#000000" fill-opacity="1"><g transform="translate(230.610321, 75.163033)"><g><path d="M 17.097656 -12.75 C 12.917969 -14.867188 9.050781 -13.367188 7.625 -11.332031 L 11.066406 -8.535156 C 12 -9.683594 13.414062 -9.796875 14.863281 -9.109375 C 16.535156 -8.347656 17.085938 -6.757812 16.328125 -5.871094 C 15.644531 -5.035156 14.457031 -5.636719 11.320312 -6.4375 C 7.375 -7.472656 4.214844 -7.453125 2.359375 -3.796875 C 1.210938 -1.179688 2.160156 1.445312 5.433594 3.101562 C 8.289062 4.550781 10.582031 4.179688 11.527344 3.871094 L 10.730469 5.4375 L 15.332031 7.769531 L 20.644531 -2.71875 C 23.117188 -7.597656 20.757812 -10.894531 17.097656 -12.75 Z M 14.210938 -1.425781 C 13.132812 0.347656 11.121094 1.125 9.167969 0.484375 C 8.035156 0.128906 7.09375 -0.609375 7.207031 -1.515625 C 7.316406 -2.511719 8.367188 -3.378906 10.304688 -2.96875 C 12.78125 -2.414062 14.472656 -1.949219 14.472656 -1.949219 Z M 14.210938 -1.425781 "/></g></g></g><g fill="#000000" fill-opacity="1"><g transform="translate(252.568997, 86.974476)"><g><path d="M 19.386719 -8.890625 C 15.742188 -11.835938 11.644531 -11.179688 9.824219 -9.484375 L 12.609375 -6.03125 C 13.761719 -6.960938 15.167969 -6.777344 16.4375 -5.800781 C 17.914062 -4.707031 18.121094 -3.035156 17.195312 -2.324219 C 16.351562 -1.652344 15.316406 -2.488281 12.414062 -3.929688 C 8.777344 -5.765625 5.679688 -6.40625 3.101562 -3.21875 C 1.433594 -0.902344 1.808594 1.863281 4.664062 4.171875 C 7.15625 6.183594 9.472656 6.300781 10.460938 6.195312 L 9.355469 7.5625 L 13.367188 10.800781 L 20.757812 1.660156 C 24.195312 -2.59375 22.578125 -6.3125 19.386719 -8.890625 Z M 14.195312 1.578125 C 12.769531 3.089844 10.640625 3.425781 8.863281 2.390625 C 7.828125 1.808594 7.066406 0.890625 7.363281 0.0234375 C 7.679688 -0.925781 8.890625 -1.554688 10.699219 -0.746094 C 13.003906 0.3125 14.5625 1.121094 14.5625 1.121094 Z M 14.195312 1.578125 "/></g></g></g><g fill="#000000" fill-opacity="1"><g transform="translate(271.683675, 103.638085)"><g/></g></g><g fill="#000000" fill-opacity="1"><g transform="translate(282.362089, 116.68122)"><g/></g></g><g fill="#000000" fill-opacity="1"><g transform="translate(291.123631, 130.54247)"><g><path d="M 7.394531 4.886719 L 28.070312 -3.683594 L 26.082031 -8.484375 L 0.824219 1.984375 L 7.101562 17.140625 L 11.6875 15.242188 Z M 7.394531 4.886719 "/></g></g></g><g fill="#000000" fill-opacity="1"><g transform="translate(300.295857, 154.296999)"><g><path d="M 20.75 9.011719 L 10.367188 10.875 C 8.0625 11.289062 6.507812 10.378906 6.183594 8.570312 C 5.851562 6.726562 6.707031 5.304688 9.398438 4.820312 L 19.664062 2.972656 L 18.738281 -2.175781 L 8.664062 -0.367188 C 2.976562 0.65625 0.40625 3.816406 1.175781 8.082031 C 1.484375 9.8125 2.480469 11.144531 3.832031 12.050781 L 2.21875 12.339844 L 3.136719 17.453125 L 21.667969 14.125 Z M 20.75 9.011719 "/></g></g></g><g fill="#000000" fill-opacity="1"><g transform="translate(304.194255, 179.413249)"><g><path d="M 9.152344 13.207031 L 18.09375 19.722656 L 18.316406 13.828125 L 13.140625 10.152344 L 18.578125 6.917969 L 18.800781 1.027344 L 9.394531 6.84375 L 0 0 L -0.222656 5.855469 L 5.410156 9.859375 L -0.511719 13.464844 L -0.734375 19.320312 Z M 9.152344 13.207031 "/></g></g></g><g fill="#000000" fill-opacity="1"><g transform="translate(302.58632, 205.014683)"><g><path d="M 2.714844 19.585938 C 3.253906 19.847656 3.847656 20.042969 4.492188 20.207031 C 9.746094 21.570312 14.703125 19.421875 16.050781 14.203125 C 17.414062 8.949219 14.269531 4.097656 9.015625 2.738281 C 3.757812 1.375 -1.429688 4.269531 -2.789062 9.527344 C -3.652344 12.855469 -2.683594 15.96875 -0.539062 18.136719 L 2.578125 14.507812 C 1.742188 13.523438 1.441406 12.195312 1.824219 10.722656 C 2.363281 8.640625 3.933594 7.554688 5.859375 7.449219 Z M 11.476562 13.019531 C 10.929688 15.136719 9.347656 15.9375 7.425781 15.882812 L 9.386719 8.320312 C 11.082031 9.246094 12.027344 10.902344 11.476562 13.019531 Z M 11.476562 13.019531 "/></g></g></g><g fill="#000000" fill-opacity="1"><g transform="translate(295.180656, 229.72963)"><g/></g></g><g fill="#000000" fill-opacity="1"><g transform="translate(287.693737, 244.83254)"><g/></g></g><g fill="#000000" fill-opacity="1"><g transform="translate(278.795266, 258.506649)"><g><path d="M 2.34375 29.945312 L 5.964844 33.394531 L 18.324219 20.40625 L -1.480469 1.554688 L -5.0625 5.320312 L 3.03125 13.019531 L -3.945312 20.347656 L -0.351562 23.769531 L 6.625 16.441406 L 11.121094 20.722656 Z M 2.34375 29.945312 "/></g></g></g><g fill="#000000" fill-opacity="1"><g transform="translate(259.430162, 277.748358)"><g><path d="M 2.738281 21.152344 C 6.632812 18.542969 7.222656 14.4375 6.144531 12.199219 L 2.019531 13.832031 C 2.566406 15.207031 1.972656 16.496094 0.660156 17.417969 C -0.820312 18.503906 -2.476562 18.203125 -2.882812 17.113281 C -3.273438 16.105469 -2.167969 15.367188 0.0703125 13.023438 C 2.902344 10.089844 4.433594 7.324219 2.152344 3.917969 C 0.4375 1.636719 -2.316406 1.175781 -5.367188 3.21875 C -8.027344 5 -8.824219 7.179688 -9.019531 8.152344 L -9.996094 6.691406 L -14.28125 9.5625 L -7.742188 19.332031 C -4.699219 23.875 -0.667969 23.433594 2.738281 21.152344 Z M -5.714844 13.085938 C -6.738281 11.28125 -6.429688 9.144531 -4.914062 7.753906 C -4.050781 6.941406 -2.945312 6.484375 -2.207031 7.023438 C -1.394531 7.609375 -1.152344 8.949219 -2.460938 10.4375 C -4.15625 12.324219 -5.390625 13.574219 -5.390625 13.574219 Z M -5.714844 13.085938 "/></g></g></g><g fill="#000000" fill-opacity="1"><g transform="translate(238.195604, 291.07333)"><g><path d="M -4.355469 14.253906 C -1.269531 13.953125 -0.585938 14.179688 -0.28125 14.816406 C -0.0507812 15.269531 -0.148438 16.367188 -2.050781 16.980469 C -3.433594 17.421875 -4.351562 16.828125 -4.769531 16.324219 L -8.023438 18.886719 C -7.117188 20.375 -4.015625 22.265625 0.175781 20.539062 C 4.691406 18.683594 5.601562 15.351562 4.710938 12.886719 C 3.644531 9.988281 1.449219 9.371094 -2.894531 9.597656 C -5.65625 9.761719 -6.53125 9.996094 -6.96875 9.035156 C -7.390625 8.109375 -6.078125 7.191406 -4.75 6.726562 C -3.492188 6.292969 -1.675781 6.394531 -0.945312 7.148438 L 1.785156 3.828125 C 0.332031 1.933594 -3.714844 1.234375 -7.363281 2.734375 C -11.375 4.386719 -13.3125 7.675781 -12.128906 10.863281 C -11.152344 13.542969 -8.957031 14.667969 -4.355469 14.253906 Z M -4.355469 14.253906 "/></g></g></g><g fill="#000000" fill-opacity="1"><g transform="translate(217.603226, 299.09372)"><g><path d="M -6.964844 20.777344 C -5.238281 20.449219 -3.917969 19.441406 -3.027344 18.078125 L -1.117188 28.050781 L 3.984375 27.074219 L -1.152344 0.21875 L -6.253906 1.195312 L -4.332031 11.246094 C -3.8125 13.972656 -4.84375 15.441406 -6.644531 15.785156 C -8.488281 16.136719 -9.84375 15.285156 -10.355469 12.597656 L -12.316406 2.355469 L -17.417969 3.332031 L -15.496094 13.382812 C -14.410156 19.058594 -11.222656 21.59375 -6.964844 20.777344 Z M -6.964844 20.777344 "/></g></g></g><g fill="#000000" fill-opacity="1"><g transform="translate(191.959935, 302.965193)"><g><path d="M -3.785156 21.503906 C -5.386719 21.527344 -6.65625 22.832031 -6.632812 24.433594 C -6.609375 26.074219 -5.300781 27.34375 -3.699219 27.320312 C -2.058594 27.296875 -0.789062 25.988281 -0.8125 24.347656 C -0.835938 22.746094 -2.144531 21.476562 -3.785156 21.503906 Z M -1.484375 0.0234375 L -6.679688 0.0976562 L -6.402344 18.921875 L -1.207031 18.847656 Z M -1.484375 0.0234375 "/></g></g></g><g fill="#000000" fill-opacity="1"><g transform="translate(176.757619, 303.160657)"><g><path d="M -13.09375 17.195312 C -7.738281 18.082031 -2.996094 14.550781 -2.113281 9.191406 C -1.226562 3.835938 -4.574219 -1.074219 -9.929688 -1.957031 C -15.289062 -2.84375 -20.035156 0.726562 -20.917969 6.085938 C -21.804688 11.441406 -18.453125 16.3125 -13.09375 17.195312 Z M -10.707031 2.746094 C -7.933594 3.203125 -6.664062 5.589844 -7.121094 8.363281 C -7.582031 11.140625 -9.550781 12.992188 -12.324219 12.53125 C -15.097656 12.074219 -16.367188 9.6875 -15.910156 6.914062 C -15.449219 4.136719 -13.480469 2.285156 -10.707031 2.746094 Z M -10.707031 2.746094 "/></g></g></g><g fill="#000000" fill-opacity="1"><g transform="translate(150.739122, 298.174801)"><g><path d="M -17.289062 13.621094 C -15.660156 14.277344 -14.003906 14.144531 -12.515625 13.484375 L -13.128906 15.003906 L -8.3125 16.949219 L -1.269531 -0.511719 L -6.085938 -2.457031 L -9.914062 7.035156 C -10.953125 9.605469 -12.578125 10.296875 -14.316406 9.597656 C -16.054688 8.894531 -16.699219 7.457031 -15.675781 4.921875 L -11.773438 -4.75 L -16.589844 -6.695312 L -20.417969 2.796875 C -22.582031 8.15625 -21.273438 12.011719 -17.289062 13.621094 Z M -17.289062 13.621094 "/></g></g></g><g fill="#000000" fill-opacity="1"><g transform="translate(126.994869, 287.526542)"><g/></g></g><g fill="#000000" fill-opacity="1"><g transform="translate(100.588081, 267.864236)"><g><path d="M -12.730469 -8.359375 C -9.6875 -4.445312 -10.824219 0.203125 -14.742188 3.246094 C -18.691406 6.3125 -23.472656 6.269531 -26.515625 2.351562 C -28.363281 -0.0234375 -28.671875 -2.648438 -27.785156 -5.070312 L -32.511719 -7.332031 C -34.230469 -3.179688 -33.710938 1.5625 -30.617188 5.542969 C -25.800781 11.742188 -17.683594 12.257812 -11.484375 7.441406 C -5.285156 2.621094 -3.78125 -5.375 -8.597656 -11.574219 C -11.691406 -15.550781 -16.1875 -17.199219 -20.605469 -16.585938 L -19.582031 -11.445312 C -17.015625 -11.710938 -14.574219 -10.734375 -12.730469 -8.359375 Z M -12.730469 -8.359375 "/></g></g></g><g fill="#000000" fill-opacity="1"><g transform="translate(81.850653, 242.115483)"><g><path d="M -21.558594 -1.542969 C -19.367188 3.421875 -13.816406 5.457031 -8.847656 3.265625 C -3.882812 1.074219 -1.605469 -4.414062 -3.796875 -9.382812 C -5.992188 -14.347656 -11.578125 -16.367188 -16.542969 -14.175781 C -21.511719 -11.980469 -23.75 -6.511719 -21.558594 -1.542969 Z M -8.160156 -7.457031 C -7.023438 -4.882812 -8.324219 -2.515625 -10.898438 -1.382812 C -13.472656 -0.246094 -16.097656 -0.878906 -17.234375 -3.453125 C -18.371094 -6.023438 -17.066406 -8.394531 -14.496094 -9.527344 C -11.921875 -10.664062 -9.292969 -10.03125 -8.160156 -7.457031 Z M -8.160156 -7.457031 "/></g></g></g><g fill="#000000" fill-opacity="1"><g transform="translate(71.782901, 217.604807)"><g><path d="M -20.914062 -8.621094 L -10.570312 -10.679688 C -8.269531 -11.136719 -6.699219 -10.257812 -6.34375 -8.457031 C -5.976562 -6.617188 -6.804688 -5.175781 -9.488281 -4.644531 L -19.714844 -2.609375 L -18.695312 2.523438 L -8.65625 0.527344 C -2.988281 -0.601562 -0.480469 -3.808594 -1.324219 -8.058594 C -1.667969 -9.785156 -2.6875 -11.09375 -4.054688 -11.976562 L -2.445312 -12.296875 L -3.460938 -17.390625 L -21.925781 -13.71875 Z M -20.914062 -8.621094 "/></g></g></g><g fill="#000000" fill-opacity="1"><g transform="translate(67.59222, 192.294785)"><g><path d="M -5.550781 -12.222656 C -5.082031 -11.714844 -4.769531 -10.738281 -4.769531 -10.035156 C -4.769531 -8.394531 -5.785156 -7.964844 -7.464844 -7.964844 L -13.832031 -7.964844 L -13.832031 -12.339844 L -18.832031 -12.335938 L -18.828125 -7.960938 L -24.21875 -7.960938 L -23.046875 -2.765625 L -18.828125 -2.765625 L -18.828125 -0.1875 L -13.828125 -0.191406 L -13.828125 -2.769531 L -5.78125 -2.769531 C -1.875 -2.773438 0.195312 -5 0.191406 -8.984375 C 0.191406 -11.210938 -0.628906 -12.96875 -1.566406 -13.945312 Z M -5.550781 -12.222656 "/></g></g></g><g fill="#000000" fill-opacity="1"><g transform="translate(67.9305, 171.56761)"><g><path d="M -16.027344 -15.960938 L -5.683594 -13.910156 C -3.386719 -13.453125 -2.273438 -12.039062 -2.628906 -10.238281 C -2.992188 -8.398438 -4.308594 -7.386719 -6.992188 -7.917969 L -17.222656 -9.945312 L -18.238281 -4.8125 L -8.203125 -2.820312 C -2.53125 -1.695312 1.011719 -3.703125 1.855469 -7.953125 C 2.199219 -9.679688 1.757812 -11.277344 0.828125 -12.617188 L 2.4375 -12.300781 L 3.449219 -17.394531 L -15.019531 -21.054688 Z M -16.027344 -15.960938 "/></g></g></g><g fill="#000000" fill-opacity="1"><g transform="translate(73.824785, 146.49343)"><g><path d="M -13.6875 -17.113281 C -14.347656 -15.484375 -14.214844 -13.828125 -13.550781 -12.339844 L -15.074219 -12.953125 L -17.019531 -8.136719 L 0.4375 -1.085938 L 2.382812 -5.902344 L -7.105469 -9.734375 C -9.675781 -10.773438 -10.351562 -12.4375 -9.664062 -14.140625 C -9.402344 -14.792969 -9.039062 -15.277344 -8.574219 -15.59375 L -13.023438 -18.445312 C -13.273438 -18.039062 -13.5 -17.582031 -13.6875 -17.113281 Z M -13.6875 -17.113281 "/></g></g></g><g fill="#000000" fill-opacity="1"><g transform="translate(81.066185, 129.217162)"><g><path d="M 3.546875 -19.453125 C 3.121094 -19.867188 2.613281 -20.238281 2.054688 -20.597656 C -2.511719 -23.535156 -7.886719 -23.046875 -10.804688 -18.511719 C -13.738281 -13.945312 -12.273438 -8.359375 -7.707031 -5.421875 C -3.140625 -2.484375 2.691406 -3.609375 5.628906 -8.175781 C 7.488281 -11.066406 7.542969 -14.328125 6.1875 -17.058594 L 2.089844 -14.585938 C 2.574219 -13.390625 2.445312 -12.035156 1.621094 -10.753906 C 0.460938 -8.945312 -1.375 -8.40625 -3.234375 -8.90625 Z M -6.828125 -15.957031 C -5.644531 -17.796875 -3.894531 -18.0625 -2.085938 -17.410156 L -6.308594 -10.839844 C -7.632812 -12.25 -8.011719 -14.117188 -6.828125 -15.957031 Z M -6.828125 -15.957031 "/></g></g></g><g clip-path="url(#49ad77a8f7)"><path fill="#1f1f1f" d="M 260.371094 187.332031 C 203 197.894531 194.4375 206.453125 183.875 263.824219 C 173.316406 206.453125 164.753906 197.894531 107.382812 187.332031 C 164.753906 176.769531 173.316406 168.207031 183.875 110.835938 C 194.4375 168.207031 203 176.769531 260.371094 187.332031 Z M 260.371094 187.332031 " fill-opacity="1" fill-rule="nonzero"/></g><g clip-path="url(#ea81ff21d4)"><path fill="#dfc392" d="M 120.410156 282.894531 C 110.566406 284.707031 109.097656 286.175781 107.285156 296.019531 C 105.472656 286.175781 104.003906 284.707031 94.164062 282.894531 C 104.003906 281.085938 105.472656 279.613281 107.285156 269.773438 C 109.097656 279.613281 110.566406 281.085938 120.410156 282.894531 Z M 120.410156 282.894531 " fill-opacity="1" fill-rule="nonzero"/></g><g clip-path="url(#36557df277)"><g clip-path="url(#00273b0251)"><g clip-path="url(#af46f85049)"><path fill="#dfc392" d="M 120.4375 76.644531 C 114.304688 83.433594 114.054688 85.316406 118.214844 93.46875 C 111.425781 87.332031 109.542969 87.085938 101.390625 91.242188 C 107.527344 84.453125 107.773438 82.570312 103.617188 74.421875 C 110.40625 80.554688 112.289062 80.804688 120.4375 76.644531 Z M 120.4375 76.644531 " fill-opacity="1" fill-rule="nonzero"/></g></g></g><g clip-path="url(#8ff42d94f0)"><g clip-path="url(#5aed70ee28)"><g clip-path="url(#3e66c990d7)"><path fill="#dfc392" d="M 294.246094 116.824219 C 288.246094 109.179688 286.320312 108.578125 277.035156 111.464844 C 284.683594 105.460938 285.28125 103.535156 282.398438 94.25 C 288.398438 101.898438 290.328125 102.496094 299.609375 99.613281 C 291.960938 105.613281 291.363281 107.542969 294.246094 116.824219 Z M 294.246094 116.824219 " fill-opacity="1" fill-rule="nonzero"/></g></g></g><g clip-path="url(#25f8aa995b)"><g clip-path="url(#d1e725c815)"><g clip-path="url(#035542ac92)"><path fill="#dfc392" d="M 312.246094 249.117188 C 301.953125 251.574219 300.484375 253.207031 299.117188 263.699219 C 296.660156 253.40625 295.027344 251.9375 284.535156 250.570312 C 294.824219 248.113281 296.296875 246.480469 297.664062 235.988281 C 300.121094 246.277344 301.753906 247.75 312.246094 249.117188 Z M 312.246094 249.117188 " fill-opacity="1" fill-rule="nonzero"/></g></g></g></svg>