<svg xmlns="http://www.w3.org/2000/svg" xmlns:xlink="http://www.w3.org/1999/xlink" width="500" zoomAndPan="magnify" viewBox="0 0 375 374.999991" height="500" preserveAspectRatio="xMidYMid meet" version="1.0"><defs><clipPath id="a4b25566b1"><path d="M 87.671875 71.179688 L 287.328125 71.179688 L 287.328125 270.832031 L 87.671875 270.832031 Z M 87.671875 71.179688 " clip-rule="nonzero"/></clipPath><clipPath id="b6895b3b90"><path d="M 187.5 71.179688 L 206.878906 98.6875 L 237.414062 84.554688 L 240.441406 118.066406 L 273.953125 121.09375 L 259.820312 151.628906 L 287.328125 171.007812 L 259.820312 190.386719 L 273.953125 220.921875 L 240.441406 223.949219 L 237.414062 257.460938 L 206.878906 243.324219 L 187.5 270.832031 L 168.121094 243.324219 L 137.585938 257.460938 L 134.558594 223.949219 L 101.046875 220.921875 L 115.179688 190.386719 L 87.671875 171.007812 L 115.179688 151.628906 L 101.046875 121.09375 L 134.558594 118.066406 L 137.585938 84.554688 L 168.121094 98.6875 L 187.5 71.179688 " clip-rule="nonzero"/></clipPath></defs><g clip-path="url(#a4b25566b1)"><g clip-path="url(#b6895b3b90)"><path fill="#dfc392" d="M 87.671875 71.179688 L 287.328125 71.179688 L 287.328125 270.832031 L 87.671875 270.832031 Z M 87.671875 71.179688 " fill-opacity="1" fill-rule="nonzero"/></g></g></svg>